<svg xmlns="http://www.w3.org/2000/svg" xmlns:xlink="http://www.w3.org/1999/xlink" xmlns:inkscape="http://www.inkscape.org/namespaces/inkscape" version="1.1" width="1920" height="1080" viewBox="0 0 1920 1080">
<defs>
<clipPath id="clip_0">
<path transform="matrix(1,0,0,-1,0,1080)" d="M0 1080H1920V0H0Z"/>
</clipPath>
</defs>
<g inkscape:groupmode="layer" inkscape:label="Layer 1">
<path transform="matrix(1,0,0,-1,768.7197,504.37989)" d="M0 0V-15.852H-95.502V124.829H-1.782V108.978H-77.669V63.404H-11.689V48.542H-77.669V0Z" fill="#2d2846"/>
<path transform="matrix(1,0,0,-1,830.6509,379.55079)" d="M0 0 42.798-58.649 85.595 0H105.21L52.309-71.333 103.628-140.681H84.009L42.798-84.013 1.583-140.681H-18.229L33.09-71.333-19.814 0Z" fill="#2d2846"/>
<g clip-path="url(#clip_0)">
<path transform="matrix(1,0,0,-1,968.2236,449.89259)" d="M0 0C0-7.131 1.154-14.035 3.467-20.706 5.776-27.377 9.045-33.286 13.274-38.439 17.501-43.589 22.587-47.687 28.531-50.724 34.476-53.764 41.079-55.282 48.346-55.282 55.876-55.282 62.612-53.664 68.557-50.425 74.501-47.192 79.554-42.965 83.713-37.745 87.875-32.527 91.044-26.618 93.225-20.011 95.402-13.407 96.493-6.736 96.493 0 96.493 7.134 95.335 14.034 93.025 20.706 90.713 27.377 87.409 33.253 83.118 38.342 78.824 43.425 73.738 47.487 67.861 50.527 61.981 53.563 55.478 55.085 48.346 55.085 40.815 55.085 34.08 53.499 28.136 50.328 22.191 47.159 17.138 42.997 12.976 37.847 8.816 32.694 5.612 26.814 3.367 20.21 1.119 13.606 0 6.867 0 0M48.146-71.33C38.239-71.33 29.227-69.316 21.101-65.286 12.976-61.258 6.008-55.909 .195-49.238-5.617-42.569-10.107-34.939-13.275-26.351-16.447-17.766-18.033-8.984-18.033 0-18.033 9.379-16.348 18.36-12.979 26.949-9.612 35.534-4.954 43.129 .99 49.736 6.935 56.339 13.966 61.589 22.092 65.488 30.217 69.38 39.034 71.333 48.542 71.333 58.449 71.333 67.431 69.251 75.491 65.089 83.546 60.93 90.481 55.481 96.297 48.745 102.106 42.006 106.6 34.379 109.769 25.858 112.939 17.337 114.525 8.653 114.525-.196 114.525-9.576 112.84-18.561 109.472-27.146 106.104-35.731 101.479-43.293 95.602-49.833 89.722-56.369 82.723-61.59 74.601-65.485 66.475-69.384 57.658-71.33 48.146-71.33" fill="#2d2846"/>
<path transform="matrix(1,0,0,-1,771.8916,634.76077)" d="M0 0C0 7.926-1.09 15.225-3.271 21.896-5.449 28.564-8.688 34.28-12.979 39.034-17.273 43.788-22.523 47.52-28.731 50.229-34.942 52.934-42.006 54.291-49.932 54.291H-80.841V-54.687H-49.932C-41.878-54.687-34.708-53.3-28.435-50.527-22.163-47.751-16.942-43.924-12.78-39.034-8.621-34.148-5.449-28.367-3.271-21.696-1.09-15.028 0-7.794 0 0M-98.674-70.538V70.143H-49.932C-38.706 70.143-28.831 68.29-20.31 64.594-11.789 60.895-4.69 55.877 .991 49.537 6.668 43.193 10.927 35.767 13.771 27.245 16.611 18.725 18.029 9.641 18.029 0 18.029-10.698 16.447-20.378 13.275-29.027 10.104-37.68 5.549-45.078-.396-51.219-6.34-57.362-13.507-62.117-21.896-65.484-30.285-68.853-39.629-70.538-49.932-70.538Z" fill="#2d2846"/>
<path transform="matrix(1,0,0,-1,872.9429,690.2412)" d="M0 0C8.187 0 14.99 1.585 20.407 4.757 25.823 7.926 30.146 12.053 33.386 17.142 36.622 22.224 38.899 28.039 40.221 34.575 41.54 41.115 42.203 47.754 42.203 54.49V125.623H60.036V54.49C60.036 44.979 58.945 35.965 56.768 27.444 54.587 18.923 51.119 11.425 46.365 4.953 41.607-1.519 35.432-6.637 27.837-10.399 20.239-14.167 11.027-16.048 .196-16.048-11.033-16.048-20.477-14.066-28.136-10.104-35.801-6.141-41.978-.892-46.664 5.648-51.354 12.188-54.722 19.718-56.768 28.235-58.82 36.757-59.839 45.506-59.839 54.49V125.623H-42.006V54.49C-42.006 47.487-41.314 40.72-39.925 34.18-38.539 27.641-36.229 21.863-32.993 16.842-29.757 11.821-25.463 7.758-20.114 4.657-14.761 1.554-8.061 0 0 0" fill="#2d2846"/>
<path transform="matrix(1,0,0,-1,1060.0488,594.1406)" d="M0 0C-1.583 1.847-3.699 3.632-6.34 5.35-8.984 7.063-11.956 8.617-15.257 10.004-18.561 11.394-22.16 12.513-26.055 13.375-29.954 14.23-34.013 14.661-38.24 14.661-49.205 14.661-57.231 12.612-62.313 8.518-67.402 4.423-69.943-1.19-69.943-8.321-69.943-12.156-69.22-15.327-67.763-17.833-66.312-20.346-64.031-22.491-60.927-24.273-57.826-26.055-53.963-27.612-49.337-28.931-44.715-30.253-39.23-31.639-32.891-33.09-25.627-34.676-19.056-36.493-13.176-38.539-7.299-40.588-2.277-43.132 1.885-46.169 6.044-49.209 9.216-52.904 11.394-57.263 13.574-61.622 14.664-66.975 14.664-73.314 14.664-80.05 13.343-85.895 10.701-90.849 8.058-95.802 4.458-99.896-.097-103.133-4.654-106.372-10.039-108.749-16.248-110.268-22.456-111.782-29.194-112.545-36.458-112.545-47.288-112.545-57.56-110.862-67.267-107.491-76.979-104.123-85.795-99.205-93.721-92.729L-85.2-77.673C-83.09-79.921-80.346-82.163-76.979-84.408-73.607-86.657-69.779-88.671-65.485-90.452-61.194-92.234-56.568-93.691-51.614-94.812-46.661-95.937-41.479-96.497-36.063-96.497-26.023-96.497-18.229-94.711-12.681-91.147-7.132-87.58-4.358-82.23-4.358-75.097-4.358-71.133-5.25-67.801-7.032-65.089-8.817-62.384-11.426-60.039-14.858-58.058-18.297-56.076-22.556-54.326-27.641-52.805-32.727-51.29-38.507-49.736-44.976-48.15-52.11-46.436-58.386-44.583-63.8-42.602-69.22-40.62-73.742-38.243-77.374-35.467-81.009-32.694-83.749-29.326-85.596-25.363-87.448-21.4-88.368-16.646-88.368-11.098-88.368-4.358-87.117 1.583-84.604 6.735-82.099 11.889-78.596 16.247-74.103 19.814-69.615 23.379-64.266 26.055-58.055 27.837-51.847 29.622-45.11 30.513-37.844 30.513-28.333 30.513-19.747 29.056-12.085 26.154-4.427 23.247 2.38 19.349 8.324 14.462Z" fill="#2d2846"/>
<path transform="matrix(1,0,0,-1,1337,531.6187)" stroke-width="16.995" stroke-linecap="butt" stroke-miterlimit="10" stroke-linejoin="miter" fill="none" stroke="#2d2846" d="M0 0-198.07-286.101H-748.264V264.093H-198.07V121.043"/>
</g>
</g>
</svg>
